# xmcd
#
# Track frame offsets: 
#        150
#        14792
#        28915
#        42220
#        55160
#        67260
#        80337
#        93650
#        105695
#        118325
#        130895
#        142630
#        152965
#        165885
#        178647
#        191307
#
# Disc length: 2722 seconds
#
# Revision: 3
# Processed by: cddbd v1.5.2PL0 Copyright (c) Steve Scherf et al.
# Submitted via: ExactAudioCopy v0.95b3
#
DISCID=da0aa010
DTITLE=Various Artist - Motown Chartbusters Volume 3
DYEAR=1969
DGENRE=Soul
TTITLE0=Marvin Gaye - I Heard It Through The Grapevine
TTITLE1=Supremes and Temptations - I'm Gonna Make You Love Me
TTITLE2=Stevie Wonder - My Cherie Amour
TTITLE3=Isley Brothers - This Old Heart Of Mine (Is Weak For You)
TTITLE4=Marv Johnson - I'll Pick A Rose For My Rose
TTITLE5=Supremes - No Matter What Sign You Are
TTITLE6=Four Tops - I'm In A Different World
TTITLE7=Martha and The Vandellas - Dancing In The Street
TTITLE8=Stevie Wonder - For Once In My Life
TTITLE9=Marvin Gaye &Tammi Terrell - You're All I Need To Get By
TTITLE10=The Temptations - Get Ready
TTITLE11=Edwin Starr - Stop Her On Sight (SOS)
TTITLE12=Supremes - Love Child
TTITLE13=Isley Brothers - Behind A Painted Smile
TTITLE14=JR Walker and The All Stars - (I'm A) Road Runner
TTITLE15=Miracles - The Tracks Of My Tears
EXTD=
EXTT0=
EXTT1=
EXTT2=
EXTT3=
EXTT4=
EXTT5=
EXTT6=
EXTT7=
EXTT8=
EXTT9=
EXTT10=
EXTT11=
EXTT12=
EXTT13=
EXTT14=
EXTT15=
PLAYORDER=
